<?xml version="1.0" encoding="utf-8"?>
<!-- Generated by Mocodo 4.3.2 -->
<svg width="816" height="568" viewBox="0 0 816 568" xmlns="http://www.w3.org/2000/svg">
<rect x="0" y="0" width="816" height="568" fill="none" stroke="none" stroke-width="0"/>

<!-- Association POSSEDER -->
<g>
	<line x1="238" y1="187" x2="238" y2="43" stroke="#726f83" stroke-width="2"/>
	<line x1="87" y1="43" x2="238" y2="43" stroke="#726f83" stroke-width="2"/>
	<g>
		<path d="M265 18 a14 14 90 0 1 14 14 V43 h-82 V32 a14 14 90 0 1 14 -14" fill="#b2bba4" stroke="#b2bba4" stroke-width="0"/>
		<path d="M279 43 v11 a14 14 90 0 1 -14 14 H211 a14 14 90 0 1 -14 -14 V43 H82" fill="#ccd6ba" stroke="#ccd6ba" stroke-width="0"/>
		<rect x="197" y="18" width="82" height="50" fill="none" rx="14" stroke="#85956b" stroke-width="2"/>
		<line x1="197" y1="43" x2="279" y2="43" stroke="#85956b" stroke-width="1"/>
		<text x="205" y="35.75" fill="#27360c" font-family="Verdana" font-size="12">POSSÉDER</text>
	</g>
	<text x="243" y="94" fill="#726f83" font-family="Verdana" font-size="12">0,N</text>
	<text x="170" y="60" fill="#726f83" font-family="Verdana" font-size="12">0,N</text>
</g>

<!-- Association ETRE_ASSOCIEE -->
<g>
	<line x1="385" y1="382" x2="385" y2="187" stroke="#726f83" stroke-width="2"/>
	<line x1="238" y1="187" x2="385" y2="187" stroke="#726f83" stroke-width="2"/>
	<g>
		<path d="M429 162 a14 14 90 0 1 14 14 V187 h-116 V176 a14 14 90 0 1 14 -14" fill="#b2bba4" stroke="#b2bba4" stroke-width="0"/>
		<path d="M443 187 v11 a14 14 90 0 1 -14 14 H341 a14 14 90 0 1 -14 -14 V187 H116" fill="#ccd6ba" stroke="#ccd6ba" stroke-width="0"/>
		<rect x="327" y="162" width="116" height="50" fill="none" rx="14" stroke="#85956b" stroke-width="2"/>
		<line x1="327" y1="187" x2="443" y2="187" stroke="#85956b" stroke-width="1"/>
		<text x="334" y="179.75" fill="#27360c" font-family="Verdana" font-size="12">ÊTRE_ASSOCIÉE</text>
	</g>
	<text x="390" y="289" fill="#726f83" font-family="Verdana" font-size="12">0,N</text>
	<text x="300" y="204" fill="#726f83" font-family="Verdana" font-size="12">1,1</text>
</g>

<!-- Association CONTENIR -->
<g>
	<line x1="385" y1="382" x2="238" y2="382" stroke="#726f83" stroke-width="2"/>
	<line x1="87" y1="382" x2="238" y2="382" stroke="#726f83" stroke-width="2"/>
	<g>
		<path d="M264 348 a14 14 90 0 1 14 14 V373 h-80 V362 a14 14 90 0 1 14 -14" fill="#b2bba4" stroke="#b2bba4" stroke-width="0"/>
		<path d="M278 373 v29 a14 14 90 0 1 -14 14 H212 a14 14 90 0 1 -14 -14 V373 H80" fill="#ccd6ba" stroke="#ccd6ba" stroke-width="0"/>
		<rect x="198" y="348" width="80" height="68" fill="none" rx="14" stroke="#85956b" stroke-width="2"/>
		<line x1="198" y1="373" x2="278" y2="373" stroke="#85956b" stroke-width="1"/>
		<text x="206" y="365.75" fill="#27360c" font-family="Verdana" font-size="12">CONTENIR</text>
		<text x="205" y="390.8" fill="#607734" font-family="Verdana" font-size="12">quantité</text>
		<text x="205" y="407.8" fill="#607734" font-family="Verdana" font-size="12">unité</text>
	</g>
	<text x="294" y="399" fill="#726f83" font-family="Verdana" font-size="12">1,N</text>
	<text x="137" y="399" fill="#726f83" font-family="Verdana" font-size="12">0,N</text>
</g>

<!-- Association CREER -->
<g>
	<line x1="634" y1="382" x2="509" y2="382" stroke="#726f83" stroke-width="2"/>
	<line x1="385" y1="382" x2="509" y2="382" stroke="#726f83" stroke-width="2"/>
	<g>
		<path d="M523 357 a14 14 90 0 1 14 14 V382 h-56 V371 a14 14 90 0 1 14 -14" fill="#b2bba4" stroke="#b2bba4" stroke-width="0"/>
		<path d="M537 382 v11 a14 14 90 0 1 -14 14 H495 a14 14 90 0 1 -14 -14 V382 H56" fill="#ccd6ba" stroke="#ccd6ba" stroke-width="0"/>
		<rect x="481" y="357" width="56" height="50" fill="none" rx="14" stroke="#85956b" stroke-width="2"/>
		<line x1="481" y1="382" x2="537" y2="382" stroke="#85956b" stroke-width="1"/>
		<text x="489" y="374.75" fill="#27360c" font-family="Verdana" font-size="12">CRÉER</text>
	</g>
	<text x="542" y="399" fill="#726f83" font-family="Verdana" font-size="12">0,N</text>
	<text x="454" y="399" fill="#726f83" font-family="Verdana" font-size="12">1,1</text>
</g>

<!-- Association APPARTENIR -->
<g>
	<line x1="385" y1="382" x2="385" y2="517" stroke="#726f83" stroke-width="2"/>
	<line x1="238" y1="517" x2="385" y2="517" stroke="#726f83" stroke-width="2"/>
	<g>
		<path d="M417 492 a14 14 90 0 1 14 14 V517 h-92 V506 a14 14 90 0 1 14 -14" fill="#b2bba4" stroke="#b2bba4" stroke-width="0"/>
		<path d="M431 517 v11 a14 14 90 0 1 -14 14 H353 a14 14 90 0 1 -14 -14 V517 H92" fill="#ccd6ba" stroke="#ccd6ba" stroke-width="0"/>
		<rect x="339" y="492" width="92" height="50" fill="none" rx="14" stroke="#85956b" stroke-width="2"/>
		<line x1="339" y1="517" x2="431" y2="517" stroke="#85956b" stroke-width="1"/>
		<text x="346" y="509.75" fill="#27360c" font-family="Verdana" font-size="12">APPARTENIR</text>
	</g>
	<text x="390" y="484" fill="#726f83" font-family="Verdana" font-size="12">1,1</text>
	<text x="284" y="534" fill="#726f83" font-family="Verdana" font-size="12">0,N</text>
</g>

<!-- Association RECEVOIR -->
<g>
	<line x1="634" y1="382" x2="634" y2="517" stroke="#726f83" stroke-width="2"/>
	<line x1="756" y1="517" x2="634" y2="517" stroke="#726f83" stroke-width="2"/>
	<g>
		<path d="M659 492 a14 14 90 0 1 14 14 V517 h-78 V506 a14 14 90 0 1 14 -14" fill="#b2bba4" stroke="#b2bba4" stroke-width="0"/>
		<path d="M673 517 v11 a14 14 90 0 1 -14 14 H609 a14 14 90 0 1 -14 -14 V517 H78" fill="#ccd6ba" stroke="#ccd6ba" stroke-width="0"/>
		<rect x="595" y="492" width="78" height="50" fill="none" rx="14" stroke="#85956b" stroke-width="2"/>
		<line x1="595" y1="517" x2="673" y2="517" stroke="#85956b" stroke-width="1"/>
		<text x="602" y="509.75" fill="#27360c" font-family="Verdana" font-size="12">RECEVOIR</text>
	</g>
	<text x="639" y="458" fill="#726f83" font-family="Verdana" font-size="12">0,N</text>
	<text x="679" y="534" fill="#726f83" font-family="Verdana" font-size="12">1,1</text>
</g>

<!-- Entity GENRE -->
<g>
	<g>
		<rect x="9" y="9" width="156" height="25" fill="#97b8ff" stroke="none" stroke-width="0" opacity="1"/>
		<rect x="9" y="34" width="156" height="43" fill="#c0d4ff" stroke="none" stroke-width="0" opacity="1"/>
		<rect x="9" y="9" width="156" height="68" fill="none" stroke="#578dff" stroke-width="2" opacity="1"/>
		<line x1="9" y1="34" x2="165" y2="34" stroke="#578dff" stroke-width="1"/>
	</g>
	<text x="66" y="26.75" fill="#131114" font-family="Verdana" font-size="12">GENRE</text>
	<text x="14" y="51.8" fill="#3e3c42" font-family="Verdana" font-size="12">identifiant_TMDB_genre</text>
	<line x1="14" y1="54" x2="160" y2="54" stroke="#3e3c42" stroke-width="1"/>
	<text x="14" y="68.8" fill="#3e3c42" font-family="Verdana" font-size="12">nom</text>
</g>

<!-- Entity MEDIA -->
<g>
	<g>
		<rect x="181" y="102" width="114" height="25" fill="#97b8ff" stroke="none" stroke-width="0" opacity="1"/>
		<rect x="181" y="127" width="114" height="145" fill="#c0d4ff" stroke="none" stroke-width="0" opacity="1"/>
		<rect x="181" y="102" width="114" height="170" fill="none" stroke="#578dff" stroke-width="2" opacity="1"/>
		<line x1="181" y1="127" x2="295" y2="127" stroke="#578dff" stroke-width="1"/>
	</g>
	<text x="218" y="119.75" fill="#131114" font-family="Verdana" font-size="12">MÉDIA</text>
	<text x="186" y="144.8" fill="#3e3c42" font-family="Verdana" font-size="12">identifiant_TMDB</text>
	<line x1="186" y1="147" x2="290" y2="147" stroke="#3e3c42" stroke-width="1"/>
	<text x="186" y="161.8" fill="#3e3c42" font-family="Verdana" font-size="12">titre</text>
	<text x="186" y="178.8" fill="#3e3c42" font-family="Verdana" font-size="12">type</text>
	<text x="186" y="195.8" fill="#3e3c42" font-family="Verdana" font-size="12">slug</text>
	<text x="186" y="212.8" fill="#3e3c42" font-family="Verdana" font-size="12">affiche</text>
	<text x="186" y="229.8" fill="#3e3c42" font-family="Verdana" font-size="12">synopsis</text>
	<text x="186" y="246.8" fill="#3e3c42" font-family="Verdana" font-size="12">année</text>
	<text x="186" y="263.8" fill="#3e3c42" font-family="Verdana" font-size="12">réalisateur</text>
</g>

<!-- Entity INGREDIENT -->
<g>
	<g>
		<rect x="42" y="348" width="90" height="25" fill="#97b8ff" stroke="none" stroke-width="0" opacity="1"/>
		<rect x="42" y="373" width="90" height="43" fill="#c0d4ff" stroke="none" stroke-width="0" opacity="1"/>
		<rect x="42" y="348" width="90" height="68" fill="none" stroke="#578dff" stroke-width="2" opacity="1"/>
		<line x1="42" y1="373" x2="132" y2="373" stroke="#578dff" stroke-width="1"/>
	</g>
	<text x="48" y="365.75" fill="#131114" font-family="Verdana" font-size="12">INGRÉDIENT</text>
	<text x="47" y="390.8" fill="#3e3c42" font-family="Verdana" font-size="12">nom</text>
	<line x1="47" y1="393" x2="75" y2="393" stroke="#3e3c42" stroke-width="1"/>
	<text x="47" y="407.8" fill="#3e3c42" font-family="Verdana" font-size="12">approuvé</text>
</g>

<!-- Entity RECETTE -->
<g>
	<g>
		<rect x="321" y="297" width="128" height="25" fill="#97b8ff" stroke="none" stroke-width="0" opacity="1"/>
		<rect x="321" y="322" width="128" height="145" fill="#c0d4ff" stroke="none" stroke-width="0" opacity="1"/>
		<rect x="321" y="297" width="128" height="170" fill="none" stroke="#578dff" stroke-width="2" opacity="1"/>
		<line x1="321" y1="322" x2="449" y2="322" stroke="#578dff" stroke-width="1"/>
	</g>
	<text x="358" y="314.75" fill="#131114" font-family="Verdana" font-size="12">RECETTE</text>
	<text x="326" y="339.8" fill="#3e3c42" font-family="Verdana" font-size="12">titre</text>
	<line x1="326" y1="342" x2="352" y2="342" stroke="#3e3c42" stroke-width="1"/>
	<text x="326" y="356.8" fill="#3e3c42" font-family="Verdana" font-size="12">slug</text>
	<text x="326" y="373.8" fill="#3e3c42" font-family="Verdana" font-size="12">statut</text>
	<text x="326" y="390.8" fill="#3e3c42" font-family="Verdana" font-size="12">motif_refus</text>
	<text x="326" y="407.8" fill="#3e3c42" font-family="Verdana" font-size="12">nombre_personnes</text>
	<text x="326" y="424.8" fill="#3e3c42" font-family="Verdana" font-size="12">temps_préparation</text>
	<text x="326" y="441.8" fill="#3e3c42" font-family="Verdana" font-size="12">temps_cuisson</text>
	<text x="326" y="458.8" fill="#3e3c42" font-family="Verdana" font-size="12">photo</text>
</g>

<!-- Entity UTILISATEUR -->
<g>
	<g>
		<rect x="569" y="323" width="130" height="25" fill="#97b8ff" stroke="none" stroke-width="0" opacity="1"/>
		<rect x="569" y="348" width="130" height="93" fill="#c0d4ff" stroke="none" stroke-width="0" opacity="1"/>
		<rect x="569" y="323" width="130" height="118" fill="none" stroke="#578dff" stroke-width="2" opacity="1"/>
		<line x1="569" y1="348" x2="699" y2="348" stroke="#578dff" stroke-width="1"/>
	</g>
	<text x="593" y="340.75" fill="#131114" font-family="Verdana" font-size="12">UTILISATEUR</text>
	<text x="574" y="365.8" fill="#3e3c42" font-family="Verdana" font-size="12">email</text>
	<line x1="574" y1="368" x2="608" y2="368" stroke="#3e3c42" stroke-width="1"/>
	<text x="574" y="382.8" fill="#3e3c42" font-family="Verdana" font-size="12">pseudo</text>
	<text x="574" y="399.8" fill="#3e3c42" font-family="Verdana" font-size="12">nom</text>
	<text x="574" y="416.8" fill="#3e3c42" font-family="Verdana" font-size="12">rôle</text>
	<text x="574" y="433.8" fill="#3e3c42" font-family="Verdana" font-size="12">dernière_connexion</text>
</g>

<!-- Entity CATEGORIE -->
<g>
	<g>
		<rect x="197" y="475" width="82" height="25" fill="#97b8ff" stroke="none" stroke-width="0" opacity="1"/>
		<rect x="197" y="500" width="82" height="59" fill="#c0d4ff" stroke="none" stroke-width="0" opacity="1"/>
		<rect x="197" y="475" width="82" height="84" fill="none" stroke="#578dff" stroke-width="2" opacity="1"/>
		<line x1="197" y1="500" x2="279" y2="500" stroke="#578dff" stroke-width="1"/>
	</g>
	<text x="202" y="492.75" fill="#131114" font-family="Verdana" font-size="12">CATÉGORIE</text>
	<text x="202" y="517.8" fill="#3e3c42" font-family="Verdana" font-size="12">nom</text>
	<line x1="202" y1="520" x2="230" y2="520" stroke="#3e3c42" stroke-width="1"/>
	<text x="202" y="534.8" fill="#3e3c42" font-family="Verdana" font-size="12">description</text>
	<text x="202" y="551.8" fill="#3e3c42" font-family="Verdana" font-size="12">couleur</text>
</g>

<!-- Entity NOTIFICATION -->
<g>
	<g>
		<rect x="705" y="475" width="102" height="25" fill="#97b8ff" stroke="none" stroke-width="0" opacity="1"/>
		<rect x="705" y="500" width="102" height="59" fill="#c0d4ff" stroke="none" stroke-width="0" opacity="1"/>
		<rect x="705" y="475" width="102" height="84" fill="none" stroke="#578dff" stroke-width="2" opacity="1"/>
		<line x1="705" y1="500" x2="807" y2="500" stroke="#578dff" stroke-width="1"/>
	</g>
	<text x="711" y="492.75" fill="#131114" font-family="Verdana" font-size="12">NOTIFICATION</text>
	<text x="710" y="517.8" fill="#3e3c42" font-family="Verdana" font-size="12">type</text>
	<line x1="710" y1="520" x2="738" y2="520" stroke="#3e3c42" stroke-width="1"/>
	<text x="710" y="534.8" fill="#3e3c42" font-family="Verdana" font-size="12">message</text>
	<text x="710" y="551.8" fill="#3e3c42" font-family="Verdana" font-size="12">lu</text>
</g>
</svg>