<svg width="32" height="32" viewBox="0 0 32 32" fill="none" xmlns="http://www.w3.org/2000/svg">
<path d="M16 28C18.7763 28 21.4666 27.0374 23.6127 25.2761C25.7588 23.5149 27.2278 21.064 27.7694 18.3411C28.311 15.6182 27.8918 12.7917 26.5831 10.3432C25.2743 7.89479 23.1571 5.97588 20.5922 4.91345C18.0273 3.85102 15.1733 3.71081 12.5166 4.51672C9.85987 5.32262 7.56478 7.02478 6.02237 9.33315C4.47996 11.6415 3.78566 14.4133 4.05778 17.1762C4.3299 19.9391 5.5516 22.5222 7.51472 24.4853" stroke="white" stroke-width="2" stroke-linecap="round"/>
<path d="M21.334 13.334L16.0694 19.6515C15.4138 20.4382 15.086 20.8316 14.6454 20.8515C14.2049 20.8715 13.8428 20.5095 13.1187 19.7854L10.6673 17.334" stroke="white" stroke-width="2" stroke-linecap="round"/>
</svg>
